<svg xmlns="http://www.w3.org/2000/svg" xmlns:xlink="http://www.w3.org/1999/xlink" version="1.1" width="1000" height="1000" viewBox="0 0 1000 1000" xml:space="preserve">
<desc>Created with Fabric.js 3.5.0</desc>
<defs>
</defs>
<rect x="0" y="0" width="100%" height="100%" fill="#ef2853"/>
<g transform="matrix(11.0066 0 0 11.0066 499.9995 499.9996)" id="535514">
<path style="stroke: none; stroke-width: 1; stroke-dasharray: none; stroke-linecap: butt; stroke-dashoffset: 0; stroke-linejoin: miter; stroke-miterlimit: 4; is-custom-font: none; font-file-url: none; fill: rgb(255,255,255); fill-rule: nonzero; opacity: 1;" vector-effect="non-scaling-stroke" transform=" translate(-44.0301, -42.7279)" d="M 55.4 81.5 c 6.1 -11.1 5.2 -16.1 -4.3 -24.3 c 6.1 -3.5 9.5 -8.5 9.1 -15.7 c -0.5 -8.2 -7.7 -14.7 -16.3 -14.6 c -8.5 0.1 -15.6 6.7 -15.9 15 c -0.3 8.5 5.9 15.8 14.3 16.6 c 1.4 0.1 2.8 0.2 4.2 0.5 c 5.9 1.2 10.2 6.7 9.8 12.6 c -0.4 6.4 -5.5 11.4 -11.8 11.7 c -19.6 0.9 -38.6 -14.8 -41.3 -34 C -0.1 26.9 14.4 6.8 36.4 2.8 c 22.3 -4 43.4 10 48.1 32 c 4.3 20 -8.6 41.2 -28.4 46.7 h -0.7 z" stroke-linecap="round"/>
</g>
</svg>